<svg xmlns="http://www.w3.org/2000/svg" viewBox="0 0 256 256">
  <rect width="256" height="256" ry="33.70308" fill="#d20962"/>
  <g fill="#fff" stroke-width="1.09284">
    <path d="m142.5022 139.77892-73.31276 75.0965c-8.6392 8.86252-22.17303 1.65977-22.17303-11.79058v-150.193a13.37336 15.65815 0 0 1 22.1864-11.7906l73.28601 75.0965a13.37336 15.65815 0 0 1 0 23.58118z" stroke-width=".0691"/>
    <path fill-rule="evenodd" d="M126.28048 38.64149a6.03241 7.03182 0 0 1 8.5419 0l72.38897 84.38185a6.03241 7.03182 0 0 1 0 9.95706l-72.38897 84.38185a6.04003 7.0407 0 0 1-8.5419-9.95706l68.13009-79.40332-68.13009-79.40333a6.03241 7.03182 0 0 1 0-9.95705z" stroke-width=".07677"/>
  </g>
</svg>
