<svg xmlns="http://www.w3.org/2000/svg" viewBox="0 0 256 256">
  <path d="M31.672 74.043c-7.225 0-12.406 1.04-15.54 3.118-3.517 2.336-5.275 6.569-5.275 12.698v23.64c0 7.443-3.134 11.62-9.403 12.531v3.94c6.27.95 9.403 5.162 9.403 12.641v23.42c0 5.4 1.32 9.304 3.957 11.712 3.058 2.809 8.677 4.214 16.858 4.214h1.491v-3.777h-.689c-5.429 0-9.25-.784-11.467-2.353-2.522-1.751-3.784-5.089-3.784-10.014v-23.31c0-6.969-3.613-11.82-10.837-14.557 7.224-2.59 10.837-7.405 10.837-14.446V90.187c0-4.342.936-7.406 2.808-9.195 2.18-2.079 6.327-3.118 12.443-3.118h.69v-3.83zm191.166 0v3.831h.689c6.115 0 10.263 1.04 12.442 3.118 1.872 1.789 2.808 4.853 2.808 9.195v23.312c0 7.04 3.613 11.856 10.837 14.446-7.224 2.736-10.837 7.59-10.837 14.556v23.312c0 4.925-1.262 8.263-3.784 10.014-2.216 1.569-6.038 2.354-11.467 2.354h-.688v3.776h1.49c8.18 0 13.801-1.405 16.857-4.214 2.639-2.408 3.958-6.312 3.958-11.712v-23.42c0-7.479 3.134-11.692 9.403-12.641v-3.94c-6.27-.912-9.403-5.088-9.403-12.53V89.858c0-6.13-1.758-10.362-5.276-12.698-3.133-2.078-8.314-3.118-15.539-3.118z" />
  <path
    d="M103.435 160.95h-13.17v-44.125l-9.516 28.635h-9.137l-9.515-28.635v44.125H49.616v-65.9h15.377l11.55 33.06 11.515-33.06h15.377zm49.889-53.154h-23.617v12.26H151.6v12.746h-21.893v28.148h-13.17v-65.9h36.787zm53.06 32.972q0 4.78-1.517 8.542-1.482 3.762-4.103 6.24-3.034 2.921-6.688 4.16-3.62 1.24-9.206 1.24h-22.41v-65.9h19.928q6.206 0 9.068.531 2.896.532 5.723 2.346 2.93 1.903 4.344 5.134 1.448 3.186 1.448 7.302 0 4.78-1.965 8.454-1.965 3.629-5.551 5.665v.354q5.034 1.283 7.964 5.31 2.965 4.028 2.965 10.622zm-16.963-27.085q0-1.638-.655-3.275-.62-1.638-2.24-2.434-1.449-.709-3.62-.753-2.138-.088-6.034-.088h-1.242v13.94h2.07q3.137 0 5.343-.132 2.207-.133 3.482-.885 1.793-1.018 2.345-2.611.551-1.638.551-3.762zm3.241 26.82q0-3.143-.965-4.824-.931-1.726-3.206-2.567-1.552-.576-4.276-.62-2.723-.044-5.688-.044h-2.897v16.42h.966q5.585 0 7.999-.045 2.413-.044 4.447-1.15 2.069-1.107 2.827-2.922.793-1.858.793-4.248z"
    transform="matrix(1.25234 0 0 1.25234 -29.794 -32.299)"
    aria-label="MFB"
  />
</svg>
